<?xml version="1.0" standalone="no"?>
<!DOCTYPE svg PUBLIC "-//W3C//DTD SVG 20010904//EN"
 "http://www.w3.org/TR/2001/REC-SVG-20010904/DTD/svg10.dtd">
<svg version="1.0" xmlns="http://www.w3.org/2000/svg"
 width="1003.000000pt" height="1003.000000pt" viewBox="0 0 1003.000000 1003.000000"
 preserveAspectRatio="xMidYMid meet">
<metadata>
Created by potrace 1.11, written by Peter Selinger 2001-2013
</metadata>
<g transform="translate(0.000000,1003.000000) scale(0.100000,-0.100000)"
fill="#000000" stroke="none">
<path d="M5143 8803 c-9 -3 -13 -31 -13 -93 l0 -89 -45 16 c-25 8 -45 19 -45
25 0 6 -7 8 -15 4 -8 -3 -27 -1 -42 5 -17 6 -30 6 -36 0 -9 -9 -12 -19 -19
-76 -3 -17 10 -24 75 -47 43 -14 81 -28 83 -31 9 -9 -35 -47 -55 -47 -22 0
-29 -24 -11 -35 6 -4 3 -17 -10 -35 -11 -15 -20 -31 -20 -34 0 -4 20 -19 45
-35 24 -15 42 -31 38 -35 -3 -3 -2 -6 3 -6 16 0 45 40 42 58 -1 10 8 33 21 52
14 19 25 36 26 38 7 9 39 -16 65 -51 24 -33 27 -43 17 -56 -10 -12 -9 -14 4
-9 9 4 21 2 27 -4 8 -8 23 -4 52 16 22 14 40 30 40 34 0 5 -11 23 -25 42 -14
19 -25 39 -25 45 0 6 -12 22 -27 34 -31 28 -28 31 71 61 36 11 67 24 70 28 5
9 -15 86 -25 96 -3 3 -27 0 -52 -8 -26 -8 -47 -11 -47 -8 0 4 -4 2 -8 -4 -4
-6 -22 -16 -39 -22 l-33 -11 0 90 c0 49 -3 89 -7 90 -45 5 -70 6 -80 2z"/>
<path d="M4253 8718 c-6 -7 -9 -44 -9 -81 1 -42 -2 -72 -10 -78 -8 -6 -35 -1
-83 16 -39 14 -76 23 -81 20 -5 -3 -14 -25 -21 -47 -9 -37 -9 -44 7 -55 10 -7
26 -13 36 -13 10 0 18 -4 18 -9 0 -5 10 -9 23 -9 12 0 35 -5 51 -11 27 -11 28
-12 12 -30 -11 -12 -25 -17 -38 -13 -18 4 -19 2 -10 -15 9 -16 6 -27 -13 -56
-14 -20 -25 -40 -25 -46 0 -13 50 -51 68 -51 14 0 62 44 62 58 0 4 13 24 29
44 l28 37 31 -45 c18 -24 32 -46 32 -49 0 -2 13 -18 28 -35 19 -20 34 -29 45
-24 9 3 17 10 17 15 0 5 9 18 21 30 l20 20 -26 35 c-14 19 -23 39 -20 44 3 6
-1 10 -9 10 -21 0 -35 31 -26 56 6 15 26 25 75 39 l67 18 -6 41 c-11 66 -21
70 -105 41 -40 -13 -77 -22 -82 -19 -5 3 -9 36 -9 74 0 37 -3 75 -6 84 -7 20
-77 22 -91 4z"/>
<path d="M6017 8653 c-4 -3 -7 -44 -7 -91 0 -76 -2 -83 -17 -77 -10 4 -27 10
-38 13 -11 3 -22 8 -25 11 -3 4 -25 11 -48 18 l-44 11 -14 -34 c-27 -64 -22
-70 70 -100 75 -25 83 -29 73 -45 -6 -10 -28 -26 -49 -36 -35 -17 -52 -43 -28
-43 7 0 7 -6 0 -19 -17 -33 -12 -48 24 -70 18 -12 36 -21 39 -21 3 0 29 32 57
71 l52 72 24 -29 c13 -16 26 -37 29 -47 7 -20 52 -67 63 -67 4 0 23 13 42 29
l35 29 -40 56 c-22 32 -44 64 -50 72 -13 19 3 29 75 50 77 22 85 32 69 82 -11
38 -14 40 -58 44 -25 2 -47 0 -49 -4 -2 -4 -10 -8 -17 -8 -8 0 -20 -7 -28 -15
-33 -32 -40 -22 -42 60 -2 44 -3 83 -4 88 -1 9 -85 10 -94 0z"/>
<path d="M3439 8452 l-36 -3 1 -81 c1 -60 -2 -82 -13 -86 -8 -3 -44 5 -81 18
-69 24 -91 24 -96 -1 -1 -7 -6 -28 -9 -46 -7 -31 -6 -32 50 -49 31 -10 61 -26
66 -37 14 -25 3 -67 -26 -101 -14 -16 -25 -37 -25 -47 0 -16 56 -59 76 -59 5
0 29 29 54 65 25 35 48 64 52 65 12 0 48 -43 48 -58 0 -17 57 -72 75 -72 7 0
27 13 44 29 32 30 42 71 17 71 -21 0 -68 63 -54 71 9 6 8 12 -2 23 -15 20 -18
17 50 40 94 32 91 29 73 81 -8 25 -21 45 -27 45 -7 0 -37 -8 -67 -19 -49 -16
-57 -17 -77 -3 -19 13 -22 23 -22 82 0 75 -3 78 -71 72z"/>
<path d="M6816 8254 c-3 -9 -6 -49 -6 -90 0 -48 -4 -74 -11 -74 -6 0 -43 11
-81 25 -38 14 -73 25 -78 25 -12 0 -34 -75 -27 -93 3 -8 34 -24 69 -36 91 -31
94 -33 73 -65 -10 -14 -28 -29 -41 -32 -24 -6 -34 -24 -13 -24 8 0 7 -6 -2
-16 -16 -20 -20 -86 -5 -81 6 3 22 -1 36 -8 22 -11 28 -10 48 5 12 10 22 22
22 26 0 11 54 94 62 94 11 0 73 -91 71 -104 -2 -6 8 -16 22 -22 19 -9 29 -8
53 6 17 10 33 23 36 28 9 15 -5 72 -18 72 -14 0 -50 46 -60 77 -6 19 -2 23 31
29 47 9 123 40 123 51 0 19 -21 83 -29 87 -5 3 -41 -6 -82 -19 -40 -14 -77
-25 -83 -25 -7 0 -11 28 -10 77 1 43 -3 84 -9 91 -14 18 -84 16 -91 -4z"/>
<path d="M2668 7979 c-15 -8 -18 -24 -18 -89 0 -91 2 -90 -85 -60 -63 22 -91
25 -99 12 -3 -5 -8 -27 -12 -49 l-6 -41 43 -14 c34 -12 44 -20 43 -37 0 -11 2
-21 6 -21 4 0 12 -11 18 -24 9 -19 6 -30 -12 -57 -13 -19 -25 -50 -28 -69 -4
-27 -3 -31 5 -19 10 16 13 15 38 -4 23 -17 31 -18 43 -7 13 10 17 9 22 -4 10
-27 21 -18 16 14 -2 18 2 40 12 55 16 24 18 25 46 10 16 -8 35 -15 43 -15 8 0
23 -12 33 -27 35 -54 39 -55 80 -19 l37 32 -19 35 c-10 19 -22 36 -27 37 -4 2
-5 8 -1 13 3 5 1 9 -5 9 -5 0 -19 13 -31 30 l-21 29 58 18 c32 10 71 16 87 14
28 -3 29 -2 23 36 -3 21 -10 50 -16 65 l-10 27 -76 -26 c-53 -17 -80 -22 -87
-15 -6 6 -11 42 -12 80 0 39 -4 74 -8 77 -12 12 -62 14 -80 4z"/>
<path d="M7497 7693 c-4 -3 -7 -44 -7 -90 0 -45 -4 -83 -9 -83 -8 0 -81 24
-111 37 -50 21 -69 7 -73 -52 -2 -38 -2 -38 58 -59 55 -20 60 -24 63 -54 2
-24 -5 -42 -27 -71 -38 -48 -39 -64 -2 -90 34 -25 57 -27 65 -6 3 8 14 15 25
15 23 0 38 19 22 29 -17 11 16 51 43 51 25 0 56 -37 56 -65 0 -8 6 -15 14 -15
8 0 16 -7 20 -15 8 -21 33 -19 67 6 35 25 36 33 5 73 -26 34 -44 96 -28 96 6
0 12 7 14 17 2 9 23 23 53 33 56 19 63 32 41 85 -14 32 -19 36 -38 30 -13 -4
-36 -8 -51 -10 -16 -1 -32 -7 -36 -14 -4 -6 -21 -13 -37 -14 l-28 -2 -2 75
c-1 41 -2 81 -3 88 -1 13 -82 18 -94 5z"/>
<path d="M2038 7339 c-9 -6 -14 -36 -14 -86 -1 -43 -2 -81 -3 -84 -1 -3 -38 7
-83 23 -45 16 -85 25 -88 21 -4 -4 -13 -26 -20 -47 -15 -48 -6 -57 79 -81 31
-9 62 -18 69 -20 13 -5 -29 -73 -80 -131 -10 -11 -18 -35 -18 -55 1 -33 1 -33
13 -11 l13 22 34 -25 c37 -28 52 -31 48 -12 -4 17 34 77 49 77 7 0 13 5 13 11
0 6 14 9 33 7 26 -2 38 -12 65 -53 19 -27 41 -52 50 -54 9 -2 23 -8 31 -15 12
-9 12 -8 1 10 -11 18 -9 24 15 48 l27 27 -26 34 c-14 19 -38 51 -53 70 -15 21
-22 39 -17 44 11 10 120 44 141 44 12 0 14 10 10 45 -7 63 -23 77 -70 57 -20
-8 -40 -14 -44 -13 -5 0 -21 -4 -36 -10 -16 -7 -33 -12 -38 -12 -5 0 -9 38 -9
85 0 47 -3 86 -7 86 -30 6 -75 4 -85 -2z"/>
<path d="M8027 6983 c-4 -3 -7 -46 -7 -94 l0 -88 -62 22 c-35 12 -65 24 -68
27 -10 10 -40 11 -59 1 -21 -12 -34 -78 -17 -89 6 -4 37 -16 70 -28 48 -16 61
-26 67 -47 5 -20 2 -32 -16 -52 -13 -14 -28 -25 -32 -25 -5 0 -9 -8 -10 -17
-1 -10 -4 -28 -8 -39 -5 -16 -2 -23 12 -27 10 -4 28 -13 40 -22 21 -16 23 -14
64 40 39 52 45 56 72 51 33 -7 59 -34 52 -53 -2 -7 2 -13 9 -13 7 0 21 -9 31
-19 17 -20 18 -20 54 3 21 14 36 32 37 44 1 12 -3 19 -7 16 -5 -3 -9 -1 -9 4
0 5 -16 30 -35 56 -33 42 -34 46 -15 46 22 0 50 21 50 38 0 6 19 17 43 25 40
13 42 16 39 48 -6 53 -18 67 -57 67 -19 0 -38 -5 -43 -11 -4 -7 -28 -20 -54
-29 l-47 -17 0 85 c0 47 -3 89 -6 94 -7 11 -78 14 -88 3z"/>
<path d="M1623 6538 c-4 -7 -8 -46 -9 -85 -1 -78 -5 -90 -26 -77 -7 5 -18 9
-25 10 -7 1 -35 10 -64 19 -62 21 -78 11 -82 -49 l-2 -39 83 -26 84 -26 -23
-30 c-13 -17 -26 -32 -29 -35 -7 -7 -28 -40 -42 -68 -10 -21 -8 -26 18 -47 16
-13 36 -24 45 -25 9 0 36 29 60 65 24 35 49 63 54 61 6 -1 12 -16 15 -32 4
-20 11 -28 22 -26 26 4 48 -35 38 -69 -7 -23 -5 -29 6 -29 8 0 17 7 20 15 4 8
10 15 15 15 17 0 69 43 69 58 0 8 -9 25 -20 40 -15 18 -17 28 -9 33 16 10 2
29 -21 29 -16 0 -40 26 -40 44 0 8 103 35 112 30 4 -3 8 -1 8 4 0 5 9 12 20
15 23 6 25 29 9 76 -13 36 -18 37 -92 12 -32 -11 -57 -17 -57 -13 0 3 -5 1
-12 -6 -23 -23 -27 -12 -30 76 l-3 87 -42 3 c-26 2 -44 -2 -50 -10z"/>
<path d="M3919 6415 c-1 0 -3 -129 -4 -287 l-1 -288 46 0 46 0 0 128 0 127
112 3 112 3 0 44 0 44 -112 3 -112 3 -1 62 c0 47 4 63 15 65 8 2 77 3 153 3
l138 -1 -3 45 -3 46 -192 0 c-106 1 -194 1 -194 0z"/>
<path d="M4638 6401 c-9 -11 -15 -21 -13 -23 3 -2 -38 -120 -90 -262 -52 -142
-95 -262 -95 -266 0 -15 61 -16 90 -2 22 10 30 21 28 36 -5 34 25 116 42 117
79 5 152 4 162 -2 7 -4 23 -41 37 -81 l26 -73 48 -3 c26 -2 47 -1 47 2 0 3
-11 35 -25 71 -13 36 -25 67 -25 70 0 3 -4 13 -7 22 -4 10 -39 106 -78 213
-69 189 -72 195 -101 198 -19 2 -35 -4 -46 -17z"/>
<path d="M5120 6410 c-6 -4 -10 -24 -8 -46 l3 -39 58 0 57 0 -2 -199 -3 -200
-60 -1 -60 0 -3 -42 -3 -43 176 0 175 0 0 44 0 44 -65 -2 -65 -2 2 200 3 200
60 1 60 0 3 43 c2 23 0 43 -5 43 -33 6 -314 4 -323 -1z"/>
<path d="M5695 6412 c-3 -3 -5 -133 -5 -289 l0 -283 45 0 45 0 0 115 0 115 60
0 c51 0 62 -3 74 -22 26 -40 86 -189 80 -199 -3 -5 21 -9 55 -9 l60 0 -46 103
c-25 56 -49 109 -54 118 -6 12 -1 23 17 40 34 32 60 77 68 118 6 35 -11 111
-28 123 -5 3 -2 13 7 23 22 21 21 24 -3 18 -11 -3 -39 3 -62 12 -33 14 -75 18
-176 20 -72 1 -134 -1 -137 -3z m257 -91 c22 -1 60 -64 52 -87 -22 -69 -35
-76 -146 -79 l-78 -1 0 86 0 86 78 -2 c42 -1 85 -2 94 -3z"/>
<path d="M8367 6163 c-4 -3 -7 -44 -7 -90 0 -45 -1 -83 -3 -83 -2 0 -37 11
-77 25 -40 14 -79 25 -86 25 -15 0 -39 -72 -32 -92 3 -8 31 -22 63 -32 39 -12
59 -24 62 -37 3 -10 10 -19 15 -19 5 0 0 -14 -12 -30 -12 -17 -26 -27 -32 -24
-7 4 -8 2 -4 -5 4 -6 -2 -24 -14 -39 l-22 -27 33 -27 c43 -36 59 -35 88 7 40
58 57 75 81 75 17 0 21 -4 16 -17 -4 -10 -4 -14 0 -11 7 7 73 -60 74 -74 0
-12 38 -9 46 3 3 6 20 16 36 23 l29 12 -30 35 c-17 19 -31 44 -31 57 0 12 -4
22 -10 22 -5 0 -10 7 -10 15 0 8 5 15 10 15 6 0 10 8 10 18 0 12 15 22 53 32
l52 16 -2 39 c-5 66 -19 72 -108 41 -43 -14 -80 -24 -84 -22 -3 2 -5 35 -4 72
2 88 -7 104 -56 104 -21 0 -41 -3 -44 -7z"/>
<path d="M1433 5683 c-9 -3 -13 -32 -13 -95 0 -82 -2 -89 -17 -83 -70 28 -158
54 -164 48 -11 -12 -29 -85 -24 -94 3 -4 35 -17 71 -29 l66 -22 -5 -34 c-3
-19 -21 -55 -39 -80 l-32 -45 33 -30 c19 -16 39 -29 45 -29 6 0 34 32 61 70
47 66 65 82 65 60 0 -5 23 -39 51 -74 l52 -65 38 31 c48 39 45 64 -18 127 -24
24 -42 48 -40 54 2 6 36 21 76 33 41 12 77 26 82 31 8 8 -10 85 -22 97 -3 3
-45 -7 -93 -24 l-87 -29 3 92 3 92 -40 1 c-22 1 -46 -1 -52 -3z"/>
<path d="M3905 5292 c-3 -3 -5 -133 -5 -289 l0 -283 108 0 c108 0 221 23 222
45 1 17 48 65 65 65 8 0 15 5 15 10 0 6 -4 10 -9 10 -5 0 -2 21 6 48 20 66 13
204 -15 257 -31 62 -82 110 -132 125 -43 13 -244 22 -255 12z m246 -108 c48
-29 81 -99 80 -171 -1 -66 -23 -139 -41 -135 -6 1 -9 -2 -5 -8 17 -27 -54 -61
-137 -66 l-58 -3 0 199 c0 150 3 199 13 203 29 10 118 -1 148 -19z"/>
<path d="M4640 5282 c-8 -9 -17 -26 -18 -37 -2 -11 -44 -130 -93 -265 -49
-134 -89 -248 -89 -251 0 -14 62 -15 91 -1 22 11 29 20 26 34 -6 21 20 105 35
114 15 9 155 12 170 3 6 -4 23 -41 37 -81 l26 -73 48 -3 c26 -2 47 -1 47 2 0
3 -11 35 -25 71 -13 36 -25 69 -26 73 -2 8 1 2 -78 213 -33 91 -61 171 -61
177 0 18 -30 42 -53 42 -13 0 -29 -8 -37 -18z"/>
<path d="M5061 5286 c-6 -9 -8 -52 -2 -77 0 -3 39 -5 86 -5 l85 2 0 -243 0
-243 45 0 45 0 0 243 0 243 88 -1 87 0 0 45 0 45 -213 1 c-140 0 -215 -3 -221
-10z"/>
<path d="M5840 5283 c-8 -10 -16 -25 -16 -33 -2 -15 -150 -427 -178 -494 l-14
-34 34 -4 c47 -6 95 18 92 46 -1 11 4 42 12 69 11 35 19 47 35 48 68 5 142 3
156 -3 8 -4 26 -41 39 -82 l24 -76 48 0 c26 0 48 2 48 3 0 2 -9 30 -21 63 -11
32 -22 64 -23 69 -2 6 -6 17 -9 25 -4 8 -40 105 -81 215 -71 193 -75 200 -102
203 -19 2 -34 -4 -44 -15z"/>
<path d="M8517 5254 c-4 -4 -7 -42 -7 -85 0 -55 -4 -78 -14 -82 -7 -3 -45 6
-85 20 -43 16 -76 22 -81 17 -5 -5 -13 -28 -19 -52 -10 -47 -13 -43 54 -68 28
-10 26 -10 68 -18 20 -5 37 -11 37 -15 0 -13 -73 -111 -84 -111 -6 0 -12 -18
-14 -39 -2 -34 0 -39 17 -34 23 6 37 -13 22 -31 -9 -11 -3 -10 22 2 19 8 42
28 51 44 10 15 21 26 27 23 5 -3 6 1 3 9 -4 10 -1 16 9 16 8 0 17 -5 19 -10 2
-6 13 -2 25 9 l22 21 21 -30 c12 -17 18 -30 14 -30 -4 0 6 -11 22 -25 28 -24
29 -24 58 -7 50 29 53 45 18 89 -17 22 -29 43 -25 46 3 4 -2 9 -11 13 -9 3
-16 17 -16 29 0 20 10 27 68 45 37 13 71 26 76 30 8 8 -9 77 -24 93 -4 5 -46
-5 -93 -22 l-86 -30 -3 92 -3 92 -40 3 c-23 2 -44 0 -48 -4z"/>
<path d="M1427 4794 c-4 -4 -7 -45 -7 -91 0 -96 9 -91 -95 -52 -72 27 -82 25
-96 -20 -6 -22 -9 -46 -6 -53 3 -8 35 -22 71 -32 85 -23 90 -38 37 -110 -23
-30 -41 -62 -41 -70 0 -15 50 -56 69 -56 6 0 24 18 40 40 15 21 32 36 36 32 5
-4 6 -2 2 4 -3 5 4 23 16 38 l23 28 27 -39 c15 -21 27 -46 27 -54 0 -9 15 -24
33 -34 33 -18 34 -18 66 6 21 15 31 30 28 41 -3 10 -1 21 4 24 6 3 1 14 -11
24 -11 9 -20 22 -20 29 0 6 -6 11 -13 11 -14 0 -47 35 -47 50 0 5 33 19 73 31
39 13 76 26 81 30 5 4 3 29 -4 57 l-12 50 -86 -29 c-47 -16 -88 -27 -91 -24
-2 3 -5 43 -5 88 l-1 82 -45 3 c-25 2 -49 0 -53 -4z"/>
<path d="M8376 4372 c-3 -3 -6 -36 -6 -72 0 -73 -15 -99 -47 -84 -10 4 -29 8
-43 9 -14 2 -41 6 -61 10 -35 7 -35 6 -48 -36 -16 -52 -12 -57 89 -88 47 -15
68 -26 63 -34 -3 -7 -20 -31 -37 -55 -25 -35 -34 -42 -53 -37 -20 5 -23 2 -23
-25 0 -20 5 -30 15 -30 8 0 15 -3 15 -8 0 -4 16 -16 36 -27 36 -19 37 -19 48
-1 6 10 22 31 36 45 14 15 26 30 27 34 9 31 23 41 40 31 10 -6 19 -17 19 -25
1 -8 2 -20 3 -27 0 -6 6 -11 13 -10 6 2 21 -11 32 -29 25 -39 33 -40 77 -10
27 18 34 30 34 55 0 18 -5 32 -11 32 -18 0 -57 47 -44 55 6 3 9 18 8 32 -3 23
3 28 58 47 l60 21 -8 39 c-13 61 -22 67 -73 50 -24 -9 -61 -14 -82 -12 l-38 3
-3 55 c-4 92 -6 96 -51 97 -22 0 -42 -2 -45 -5z"/>
<path d="M3085 4160 c-49 -19 -61 -34 -79 -95 -12 -40 -9 -104 5 -121 7 -9 13
-29 12 -43 -1 -14 1 -18 3 -8 7 21 18 22 33 3 14 -16 44 -29 124 -51 44 -13
57 -21 57 -36 0 -10 5 -19 11 -19 18 0 39 -28 39 -52 0 -29 -45 -58 -88 -58
-55 0 -95 12 -99 32 -3 10 -14 18 -24 18 -11 0 -19 5 -19 10 0 7 -6 7 -19 1
-10 -6 -21 -8 -25 -6 -3 3 -4 2 -1 -2 3 -3 -4 -16 -14 -27 -23 -24 -19 -32 29
-67 71 -52 173 -63 263 -29 42 16 58 28 75 59 26 46 29 128 7 170 -8 16 -11
32 -7 36 4 5 1 5 -6 1 -9 -5 -15 -1 -19 13 -3 14 -13 21 -29 21 -30 0 -172 39
-196 53 -20 13 -35 42 -15 31 9 -5 9 -4 0 7 -38 40 13 89 91 89 50 0 127 -27
140 -49 5 -7 17 6 31 31 l23 43 -22 17 c-57 48 -195 61 -281 28z"/>
<path d="M3692 4160 c-23 -11 -46 -19 -50 -20 -4 0 -7 -5 -7 -10 0 -6 -5 -14
-10 -18 -6 -4 -21 -29 -35 -57 -22 -45 -25 -62 -25 -166 0 -102 3 -122 25
-170 14 -30 30 -57 37 -62 7 -4 18 -13 25 -20 22 -22 96 -47 137 -47 44 0 106
23 136 50 11 10 29 20 40 22 15 2 20 11 21 33 0 17 7 41 14 55 11 18 14 56 13
135 -1 131 -4 156 -20 173 -7 7 -13 22 -13 33 0 10 -7 19 -15 19 -8 0 -15 4
-15 8 0 5 -21 19 -47 32 -64 32 -153 37 -211 10z m178 -97 c11 -10 20 -24 20
-32 0 -7 7 -19 17 -26 20 -15 33 -175 14 -175 -8 0 -10 -8 -6 -20 8 -24 -12
-63 -29 -57 -9 4 -11 -2 -9 -17 6 -31 -60 -61 -112 -52 -35 7 -46 32 -13 30
10 -1 14 5 11 17 -4 13 -16 19 -46 21 -58 4 -69 28 -64 143 4 91 19 141 38
129 6 -3 13 3 16 15 4 15 13 21 34 21 20 0 29 5 29 16 0 14 7 15 40 10 22 -3
49 -14 60 -23z"/>
<path d="M4297 4153 c-38 -17 -61 -23 -65 -16 -5 7 -11 6 -20 -3 -10 -12 -10
-14 3 -14 21 0 19 -10 -12 -66 -26 -46 -28 -57 -28 -164 0 -111 1 -117 32
-174 31 -55 32 -60 15 -72 -15 -12 -16 -13 0 -14 9 0 18 5 20 10 2 6 27 -2 58
-19 41 -21 72 -30 122 -33 37 -2 64 0 62 4 -3 5 10 15 28 23 35 15 65 39 87
68 12 16 10 21 -20 48 l-34 30 -22 -25 c-16 -19 -32 -26 -56 -26 -22 0 -37 -6
-41 -15 -3 -8 -16 -15 -28 -15 -28 0 -88 35 -88 52 0 6 -10 22 -22 35 -44 47
-33 231 16 278 30 30 64 45 99 45 43 0 111 -31 121 -55 7 -19 58 -15 80 7 15
15 11 68 -5 68 -5 0 -9 7 -9 15 0 8 -9 15 -19 15 -11 0 -40 9 -66 20 -64 28
-136 25 -208 -7z"/>
<path d="M4815 4172 c-3 -3 -5 -24 -5 -47 l0 -42 58 1 57 1 0 -200 0 -200 -60
0 -59 0 -2 -42 -1 -43 174 0 174 0 -3 43 -3 42 -62 0 -63 0 0 197 c0 169 2
198 15 199 8 1 33 3 55 4 22 1 45 3 50 4 11 1 14 80 3 82 -25 4 -324 5 -328 1z"/>
<path d="M5409 4171 c-1 -3 -2 -133 -3 -288 l-1 -283 187 0 188 0 0 43 0 42
-136 0 c-82 0 -138 3 -143 10 -6 8 -8 106 -2 153 1 9 28 12 101 12 l100 0 0
45 0 45 -100 0 c-73 0 -100 3 -101 13 -4 61 -4 109 1 115 3 4 66 7 140 7 l135
0 3 45 3 45 -186 1 c-102 1 -186 -2 -186 -5z"/>
<path d="M5959 4176 c0 -1 -2 -17 -4 -36 -6 -53 6 -59 96 -56 l79 2 0 -243 0
-243 45 0 45 0 0 243 0 242 88 0 87 0 5 45 5 46 -222 0 c-123 0 -223 0 -224 0z"/>
<path d="M6543 4173 c-18 -7 -16 -43 1 -43 19 0 56 -61 56 -90 0 -13 3 -20 7
-17 10 10 33 -13 33 -33 0 -10 7 -23 15 -30 9 -7 23 -28 31 -46 9 -19 19 -34
23 -34 4 0 5 -56 3 -125 -5 -145 -1 -155 64 -155 l44 0 0 128 c0 108 3 131 18
148 9 10 26 36 37 57 11 21 30 48 43 59 12 12 22 27 22 33 0 7 12 30 28 51 72
104 69 110 -50 95 -4 -1 -10 -10 -13 -21 -6 -20 -35 -28 -35 -10 0 21 -28 9
-32 -13 -4 -21 -1 -23 21 -19 l25 5 -22 -34 c-12 -19 -32 -51 -44 -72 -17 -29
-26 -36 -42 -31 -12 4 -21 7 -22 8 0 0 -19 31 -42 68 -23 37 -42 74 -42 82 0
28 -88 55 -127 39z"/>
<path d="M1744 3950 c-6 -10 -26 -15 -59 -15 l-50 0 -3 -87 c-1 -49 -6 -88
-11 -88 -11 0 -104 32 -116 40 -5 3 -21 6 -34 6 -19 -1 -27 -10 -38 -41 -7
-22 -12 -44 -9 -50 2 -6 29 -19 60 -28 51 -16 75 -37 43 -37 -7 0 -21 -10 -31
-22 -19 -21 -18 -22 8 -43 l27 -21 -21 -26 c-11 -14 -20 -30 -20 -35 0 -15 60
-55 78 -51 9 2 35 30 58 63 23 33 47 60 53 60 16 0 82 -96 74 -108 -3 -6 -1
-7 5 -3 6 3 13 2 17 -4 10 -17 38 -11 69 15 l30 24 -49 71 c-57 82 -55 86 40
114 33 10 63 23 66 28 4 6 2 28 -4 50 -7 28 -17 42 -35 49 -15 6 -28 6 -31 1
-3 -5 -16 -14 -28 -21 -18 -9 -23 -9 -23 1 0 7 -5 5 -12 -5 -7 -9 -25 -19 -40
-23 l-28 -6 0 80 c0 64 3 83 16 90 9 5 15 15 12 23 -4 11 -6 11 -14 -1z"/>
<path d="M8065 3580 c-3 -5 -10 -8 -14 -6 -10 7 -12 -3 -18 -111 -4 -81 -14
-114 -25 -84 -1 6 -18 13 -37 16 -18 3 -49 12 -68 20 -20 8 -44 15 -54 15 -19
0 -21 -6 -22 -70 l0 -35 85 -30 85 -30 -38 -50 c-61 -78 -77 -108 -68 -130 7
-18 8 -18 8 -2 1 17 4 17 38 -4 l36 -23 26 34 c14 19 36 45 49 58 12 13 22 27
22 32 0 26 30 4 60 -44 49 -75 62 -82 105 -54 19 13 35 28 35 34 0 5 -20 38
-44 73 -25 35 -42 69 -40 76 3 7 31 20 63 29 87 24 96 33 80 84 -15 50 -20 51
-117 18 -40 -14 -73 -22 -73 -18 -1 4 -3 41 -5 82 -5 116 -7 125 -36 128 -15
2 -29 -2 -33 -8z"/>
<path d="M2047 3146 c-4 -10 -7 -56 -7 -103 0 -64 -3 -84 -12 -80 -74 27 -150
48 -161 44 -14 -5 -39 -75 -31 -88 2 -4 32 -17 67 -28 74 -25 93 -47 67 -78
-10 -12 -21 -19 -25 -15 -5 4 -5 1 -1 -6 10 -17 -11 -42 -30 -35 -8 3 -14 13
-14 22 0 14 -2 14 -10 1 -5 -8 -9 -33 -9 -55 0 -22 3 -34 6 -27 3 8 16 3 43
-18 21 -16 42 -30 47 -30 10 0 28 21 63 73 18 27 32 37 51 37 28 0 59 -35 59
-65 0 -8 7 -15 15 -15 7 0 18 -8 24 -17 8 -15 13 -16 30 -5 12 6 27 12 35 12
23 0 30 38 12 63 -9 12 -23 32 -33 45 -13 18 -14 31 -7 60 8 33 15 39 56 52
64 20 70 28 58 72 -13 46 -32 63 -57 49 -18 -10 -129 -51 -138 -51 -3 0 -5 41
-5 90 l0 90 -39 0 c-22 0 -41 5 -43 12 -3 7 -7 5 -11 -6z"/>
<path d="M7549 2841 l-36 -6 -2 -85 c-1 -47 -4 -86 -6 -88 -6 -7 -85 21 -85
30 0 5 -4 7 -9 4 -5 -4 -21 -2 -36 4 -35 13 -51 1 -60 -46 -8 -44 4 -60 51
-69 87 -16 109 -54 60 -106 -55 -59 -55 -100 0 -126 29 -13 40 -5 83 58 13 19
34 40 46 46 21 9 27 6 54 -32 17 -24 31 -47 31 -51 0 -16 35 -32 52 -23 11 6
25 6 36 0 16 -8 18 -5 20 28 2 29 -5 47 -33 84 -20 26 -33 47 -29 47 5 0 0 6
-11 13 -10 8 -15 19 -11 25 8 13 99 42 133 42 14 0 23 6 23 15 0 8 5 15 11 15
6 0 3 7 -5 16 -9 8 -16 21 -16 28 0 7 -6 20 -13 29 -11 16 -16 17 -56 2 -24
-8 -46 -13 -49 -10 -3 3 -16 -2 -30 -11 -39 -26 -48 -14 -47 67 1 65 -10 112
-25 108 -3 -1 -21 -5 -41 -8z"/>
<path d="M2296 2687 c3 -10 9 -15 12 -12 3 3 0 11 -7 18 -10 9 -11 8 -5 -6z"/>
<path d="M2677 2503 c-4 -3 -7 -44 -7 -90 0 -45 -1 -83 -3 -83 -2 0 -37 11
-77 25 -40 14 -79 25 -86 25 -15 0 -39 -72 -31 -93 3 -8 29 -21 59 -29 42 -12
53 -19 52 -35 0 -14 4 -19 13 -16 23 9 14 -23 -17 -62 -16 -21 -30 -42 -30
-46 0 -5 -8 -9 -17 -9 -13 -1 -7 -11 22 -35 22 -19 45 -35 51 -35 8 0 74 72
88 96 1 1 13 4 27 7 24 6 31 1 65 -48 20 -30 44 -55 52 -55 20 0 72 39 72 54
0 7 -11 27 -25 46 -14 19 -25 44 -25 56 0 13 -8 24 -20 27 -37 10 -20 26 53
48 39 12 76 25 80 29 12 11 -2 76 -22 98 -9 10 -25 16 -36 14 -34 -6 -75 -24
-75 -33 0 -14 -52 -32 -59 -20 -3 5 -6 46 -6 90 l1 81 -46 0 c-26 0 -50 -3
-53 -7z"/>
<path d="M6910 2275 c0 -18 -46 -21 -53 -2 -3 7 -6 4 -6 -6 -1 -10 -4 -16 -8
-14 -5 3 -7 -35 -5 -85 3 -71 1 -89 -10 -86 -7 2 -46 14 -87 28 -72 24 -74 24
-85 6 -6 -11 -19 -28 -28 -38 -10 -10 -18 -21 -18 -26 0 -9 67 -39 125 -54 45
-12 60 -28 28 -28 -17 -1 -17 -1 0 -14 17 -13 17 -15 -8 -42 -34 -37 -59 -90
-51 -110 4 -9 9 -14 13 -11 3 4 19 -1 34 -10 28 -16 29 -16 49 5 12 12 25 22
30 22 6 0 9 3 8 8 -5 14 28 49 52 55 19 4 29 0 43 -18 10 -15 13 -26 7 -30
-18 -11 -11 -35 10 -35 11 0 29 -5 39 -12 14 -9 23 -8 41 5 12 8 28 13 35 11
7 -3 16 0 21 7 4 8 3 10 -4 5 -7 -4 -12 -2 -12 3 0 6 5 11 10 11 8 0 7 4 0 13
-6 6 -26 33 -45 59 -34 45 -35 49 -21 76 11 21 27 31 65 41 66 17 74 28 58 77
-13 36 -17 39 -55 41 -23 1 -47 -4 -54 -11 -11 -10 -71 -36 -84 -36 -2 0 -4
38 -4 84 0 49 -4 88 -11 91 -6 4 -8 13 -5 21 3 8 1 14 -4 14 -6 0 -10 -7 -10
-15z"/>
<path d="M3440 2056 c-5 -15 -10 -63 -10 -108 0 -89 1 -88 -77 -56 -39 16 -54
20 -83 21 -22 2 -26 -3 -34 -44 -12 -61 -4 -81 31 -78 51 5 93 -11 99 -36 6
-26 -2 -48 -16 -40 -4 3 -11 -7 -15 -22 -3 -14 -15 -38 -26 -52 l-21 -26 31
-27 c31 -28 71 -38 71 -18 0 6 8 18 18 28 9 9 25 30 35 45 9 15 23 27 30 27
13 0 75 -58 101 -95 12 -16 18 -17 39 -8 14 7 35 9 48 6 17 -5 20 -3 14 8 -5
7 -8 29 -6 47 2 20 -1 32 -7 28 -9 -5 -99 101 -91 108 2 1 27 9 54 15 54 14
115 39 115 47 0 3 -5 25 -11 50 l-12 45 -39 -6 c-21 -4 -51 -13 -66 -21 -16
-7 -39 -15 -52 -16 -24 -3 -25 -1 -26 72 -1 91 -8 110 -36 102 -13 -3 -26 1
-34 13 -12 17 -14 16 -24 -9z"/>
<path d="M6046 1844 c-3 -9 -6 -49 -6 -90 0 -53 -4 -74 -12 -74 -7 0 -44 11
-82 24 -38 13 -74 22 -81 20 -6 -3 -17 -25 -22 -50 -12 -51 -15 -48 75 -75 23
-6 39 -16 36 -20 -3 -5 2 -6 10 -3 34 13 27 -26 -16 -88 -45 -66 -55 -88 -38
-88 6 0 24 -10 41 -22 30 -23 31 -23 45 -4 11 16 24 19 69 17 31 -1 55 2 55 7
0 6 -5 12 -12 14 -15 5 -3 38 15 38 7 0 28 -21 45 -46 l33 -46 27 18 c15 10
39 24 55 32 28 14 37 25 15 17 -7 -2 -25 14 -41 36 -20 29 -26 46 -21 66 4 14
7 35 8 46 1 16 12 24 45 34 25 7 49 17 54 22 16 16 -14 90 -43 105 -24 11 -27
11 -26 -2 1 -9 -18 -21 -49 -33 -81 -29 -80 -29 -79 59 0 42 -4 83 -9 90 -14
18 -84 16 -91 -4z"/>
<path d="M4277 1774 c-4 -4 -7 -45 -7 -91 0 -83 0 -84 -22 -77 -13 3 -30 12
-38 20 -9 7 -39 16 -67 20 l-52 6 -11 -41 c-6 -23 -15 -41 -20 -41 -6 0 -10
-4 -10 -10 0 -5 3 -9 8 -8 4 1 40 -9 80 -22 67 -22 72 -26 72 -53 0 -20 -6
-30 -20 -34 -13 -3 -20 -14 -20 -28 0 -12 -7 -28 -15 -35 -25 -21 -17 -47 22
-71 l36 -22 24 29 c13 16 35 42 48 58 14 16 25 32 25 37 0 5 6 9 13 8 12 0 77
-82 77 -97 0 -4 9 -13 20 -20 16 -10 26 -9 54 6 20 9 36 23 36 31 0 24 -44
110 -57 111 -11 0 -33 30 -33 44 0 2 36 16 80 31 88 29 92 36 66 100 l-15 35
-42 -15 c-23 -8 -50 -15 -59 -15 -10 0 -20 -4 -22 -9 -1 -4 -13 -11 -25 -15
-22 -7 -22 -5 -25 81 l-3 88 -45 3 c-25 2 -49 0 -53 -4z"/>
<path d="M5260 1730 c0 -5 5 -10 11 -10 5 0 7 5 4 10 -3 6 -8 10 -11 10 -2 0
-4 -4 -4 -10z"/>
<path d="M5164 1705 c-2 -5 -5 -46 -6 -90 -3 -74 -5 -80 -23 -77 -11 2 -21 8
-23 13 -2 5 -16 9 -30 9 -15 1 -38 7 -51 14 -37 20 -58 9 -69 -37 -6 -22 -9
-44 -6 -48 2 -4 28 -15 57 -25 28 -9 58 -21 65 -27 18 -14 6 -60 -29 -111 -38
-56 -41 -80 -9 -84 14 -2 31 -9 39 -15 11 -9 20 -4 45 24 17 20 40 41 51 47
11 5 20 20 20 31 0 11 4 22 10 23 14 3 76 -82 69 -93 -3 -5 -1 -8 5 -7 5 2 16
-5 24 -16 13 -18 15 -18 55 5 42 24 52 42 31 54 -6 4 -8 14 -5 22 3 8 2 12 -3
9 -5 -3 -21 10 -36 30 -39 51 -29 78 37 100 87 28 88 28 76 71 -17 64 -21 65
-111 33 -44 -17 -82 -30 -84 -30 -2 0 -3 40 -3 90 0 85 -1 90 -22 95 -32 7
-70 2 -74 -10z"/>
</g>
</svg>
